<svg xmlns="http://www.w3.org/2000/svg" width="48" height="48" viewBox="0 0 48 48" fill="none">
  <rect width="48" height="48" rx="10" fill="#1F7A8C"/>
  <rect x="10" y="14" width="12" height="24" rx="1.5" fill="#E3F0F2"/>
  <rect x="26" y="9" width="12" height="29" rx="1.5" fill="#BFE0E5"/>
  <rect x="13" y="18" width="2.6" height="2.6" fill="#1F7A8C"/>
  <rect x="17.4" y="18" width="2.6" height="2.6" fill="#1F7A8C"/>
  <rect x="13" y="23" width="2.6" height="2.6" fill="#1F7A8C"/>
  <rect x="17.4" y="23" width="2.6" height="2.6" fill="#1F7A8C"/>
  <rect x="13" y="28" width="2.6" height="2.6" fill="#1F7A8C"/>
  <rect x="17.4" y="28" width="2.6" height="2.6" fill="#1F7A8C"/>
  <rect x="29" y="13" width="2.6" height="2.6" fill="#1F7A8C"/>
  <rect x="33.4" y="13" width="2.6" height="2.6" fill="#1F7A8C"/>
  <rect x="29" y="18" width="2.6" height="2.6" fill="#1F7A8C"/>
  <rect x="33.4" y="18" width="2.6" height="2.6" fill="#1F7A8C"/>
  <rect x="29" y="23" width="2.6" height="2.6" fill="#1F7A8C"/>
  <rect x="33.4" y="23" width="2.6" height="2.6" fill="#1F7A8C"/>
  <path d="M31 34.5l2.2 2.2 4.3-4.6" stroke="#2F855A" stroke-width="2.4" stroke-linecap="round" stroke-linejoin="round" fill="none"/>
</svg>
